<svg width="21" height="21" viewBox="0 0 21 21" fill="none" xmlns="http://www.w3.org/2000/svg">
<path fill-rule="evenodd" clip-rule="evenodd" d="M13.75 8.125C13.75 11.2316 11.2316 13.75 8.125 13.75C5.0184 13.75 2.5 11.2316 2.5 8.125C2.5 5.0184 5.0184 2.5 8.125 2.5C11.2316 2.5 13.75 5.0184 13.75 8.125ZM12.7241 14.0499C11.454 15.0371 9.85812 15.625 8.125 15.625C3.98286 15.625 0.625 12.2671 0.625 8.125C0.625 3.98286 3.98286 0.625 8.125 0.625C12.2671 0.625 15.625 3.98286 15.625 8.125C15.625 9.85812 15.0371 11.454 14.0499 12.724L20.038 18.7121L18.7121 20.0379L12.7241 14.0499Z" fill="#817E7F"/>
</svg>
