<svg width="30" height="30" viewBox="0 0 30 30" fill="none" xmlns="http://www.w3.org/2000/svg">
<path fill-rule="evenodd" clip-rule="evenodd" d="M21.5625 25.3125H19.6875V21.5625H15.9375V19.6875H19.6875V15.9375H21.5625V19.6875H25.3125V21.5625H21.5625V25.3125Z" fill="#413F40"/>
<path fill-rule="evenodd" clip-rule="evenodd" d="M20.625 13.2812C22.7823 13.2812 24.5312 11.5323 24.5312 9.375C24.5312 7.21764 22.7823 5.46875 20.625 5.46875C18.4676 5.46875 16.7188 7.21764 16.7188 9.375C16.7188 11.5323 18.4676 13.2812 20.625 13.2812ZM20.625 14.0625C23.2139 14.0625 25.3125 11.9639 25.3125 9.375C25.3125 6.78617 23.2139 4.6875 20.625 4.6875C18.0362 4.6875 15.9375 6.78617 15.9375 9.375C15.9375 11.9639 18.0362 14.0625 20.625 14.0625Z" fill="#413F40"/>
<path d="M20.625 12.1094C22.1352 12.1094 23.3594 10.8852 23.3594 9.375C23.3594 7.86485 22.1352 6.64062 20.625 6.64062C19.1148 6.64062 17.8906 7.86485 17.8906 9.375C17.8906 10.8852 19.1148 12.1094 20.625 12.1094Z" fill="#413F40"/>
<path fill-rule="evenodd" clip-rule="evenodd" d="M9.375 13.2812C11.5323 13.2812 13.2812 11.5323 13.2812 9.375C13.2812 7.21764 11.5323 5.46875 9.375 5.46875C7.21764 5.46875 5.46875 7.21764 5.46875 9.375C5.46875 11.5323 7.21764 13.2812 9.375 13.2812ZM9.375 14.0625C11.9639 14.0625 14.0625 11.9639 14.0625 9.375C14.0625 6.78617 11.9639 4.6875 9.375 4.6875C6.78617 4.6875 4.6875 6.78617 4.6875 9.375C4.6875 11.9639 6.78617 14.0625 9.375 14.0625Z" fill="#413F40"/>
<path d="M9.375 12.1094C10.8852 12.1094 12.1094 10.8852 12.1094 9.375C12.1094 7.86485 10.8852 6.64062 9.375 6.64062C7.86485 6.64062 6.64062 7.86485 6.64062 9.375C6.64062 10.8852 7.86485 12.1094 9.375 12.1094Z" fill="#413F40"/>
<path fill-rule="evenodd" clip-rule="evenodd" d="M9.375 24.5312C11.5323 24.5312 13.2812 22.7823 13.2812 20.625C13.2812 18.4676 11.5323 16.7188 9.375 16.7188C7.21764 16.7188 5.46875 18.4676 5.46875 20.625C5.46875 22.7823 7.21764 24.5312 9.375 24.5312ZM9.375 25.3125C11.9639 25.3125 14.0625 23.2139 14.0625 20.625C14.0625 18.0362 11.9639 15.9375 9.375 15.9375C6.78617 15.9375 4.6875 18.0362 4.6875 20.625C4.6875 23.2139 6.78617 25.3125 9.375 25.3125Z" fill="#413F40"/>
<path d="M9.375 23.3594C10.8852 23.3594 12.1094 22.1352 12.1094 20.625C12.1094 19.1148 10.8852 17.8906 9.375 17.8906C7.86485 17.8906 6.64062 19.1148 6.64062 20.625C6.64062 22.1352 7.86485 23.3594 9.375 23.3594Z" fill="#413F40"/>
</svg>
