<svg width="30" height="30" viewBox="0 0 30 30" fill="none" xmlns="http://www.w3.org/2000/svg">
<path fill-rule="evenodd" clip-rule="evenodd" d="M18.6018 5.625H11.3983L9.33577 8.78906H4.6875L3.75 9.72656V23.4375L4.6875 24.375H25.3125L26.25 23.4375V9.72656L25.3125 8.78906H20.6643L18.6018 5.625ZM10.3517 10.6641L12.4142 7.5H17.5857L19.6483 10.6641H24.375V22.5H5.625V10.6641H10.3517ZM12.1875 15.9375C12.1875 14.3842 13.4467 13.125 15 13.125C16.5533 13.125 17.8125 14.3842 17.8125 15.9375C17.8125 17.4907 16.5533 18.75 15 18.75C13.4467 18.75 12.1875 17.4907 12.1875 15.9375ZM15 11.25C12.4112 11.25 10.3125 13.3486 10.3125 15.9375C10.3125 18.5264 12.4112 20.625 15 20.625C17.5889 20.625 19.6875 18.5264 19.6875 15.9375C19.6875 13.3486 17.5889 11.25 15 11.25Z" fill="#413F40"/>
</svg>
