<svg width="30" height="30" viewBox="0 0 30 30" fill="none" xmlns="http://www.w3.org/2000/svg">
<path fill-rule="evenodd" clip-rule="evenodd" d="M15 5.625C9.82233 5.625 5.625 9.82233 5.625 15C5.625 17.9109 6.95056 20.5115 9.03448 22.2325L9.375 22.5136V24.375H15C20.1776 24.375 24.375 20.1776 24.375 15C24.375 9.82233 20.1776 5.625 15 5.625ZM3.75 15C3.75 8.7868 8.7868 3.75 15 3.75C21.2133 3.75 26.25 8.7868 26.25 15C26.25 21.2133 21.2133 26.25 15 26.25H7.5V23.3854C5.1998 21.3266 3.75 18.3323 3.75 15ZM15.9375 18.75V20.625H14.0625V18.75H15.9375ZM13.125 13.0397C13.125 12.0783 13.9371 11.25 15 11.25C16.0629 11.25 16.875 12.0783 16.875 13.0397C16.875 13.4237 16.6439 13.8789 16.1345 14.3949C15.6408 14.8951 15.013 15.3241 14.491 15.6615L14.0625 15.9386V17.8125H15.9375V16.9529C16.414 16.6287 16.9785 16.2089 17.469 15.712C18.1022 15.0705 18.75 14.162 18.75 13.0397C18.75 10.9888 17.0436 9.375 15 9.375C12.9564 9.375 11.25 10.9888 11.25 13.0397H13.125Z" fill="#F2F2F2"/>
</svg>
