<svg width="415" height="397" viewBox="0 0 415 397" fill="none" xmlns="http://www.w3.org/2000/svg">
<path d="M3.03638 275.042V43.2865" stroke="#F2F2F2" stroke-width="6" stroke-linecap="round"/>
<path d="M207 393.917V162.161" stroke="#F2F2F2" stroke-width="6" stroke-linecap="round"/>
<path d="M411.281 275.042V43.2865" stroke="#F2F2F2" stroke-width="6" stroke-linecap="round"/>
<path d="M5.65115 279.516L68.4064 314.891" stroke="#F2F2F2" stroke-width="6" stroke-linecap="round"/>
<path d="M277.76 281.255L340.516 316.635" stroke="#F2F2F2" stroke-width="6" stroke-linecap="round"/>
<path d="M6.63013 43.5052L69.3853 78.8854" stroke="#F2F2F2" stroke-width="6" stroke-linecap="round"/>
<path d="M73.1355 160.766L136.901 197.635" stroke="#F2F2F2" stroke-width="6" stroke-linecap="round"/>
<path d="M71.0105 83.3594L71.0105 156.172" stroke="#F2F2F2" stroke-width="6" stroke-linecap="round"/>
<path d="M71.0105 240.562L71.0105 313.37" stroke="#F2F2F2" stroke-width="6" stroke-linecap="round"/>
<path d="M73.6301 240.771L136.385 276.151" stroke="#F2F2F2" stroke-width="6" stroke-linecap="round"/>
<path d="M139 280.62V355.594" stroke="#F2F2F2" stroke-width="6" stroke-linecap="round"/>
<path d="M140.651 358.323L203.406 393.703" stroke="#F2F2F2" stroke-width="6" stroke-linecap="round"/>
<path d="M138.031 122.859L138.031 195.672" stroke="#F2F2F2" stroke-width="6" stroke-linecap="round"/>
<path d="M72.6511 3.4375L135.401 38.8177" stroke="#F2F2F2" stroke-width="6" stroke-linecap="round"/>
<path d="M73.5938 78.8125L135.443 41.8281" stroke="#F2F2F2" stroke-width="6" stroke-linecap="round"/>
<path d="M73.125 314.849L137.948 276.974" stroke="#F2F2F2" stroke-width="6" stroke-linecap="round"/>
<path d="M5.63013 40.5208L69.4062 3.46873" stroke="#F2F2F2" stroke-width="6" stroke-linecap="round"/>
<path d="M72.5781 158.964L136.411 121.375" stroke="#F2F2F2" stroke-width="6" stroke-linecap="round"/>
<path d="M138.01 43.2969L138.01 116.104" stroke="#F2F2F2" stroke-width="6" stroke-linecap="round"/>
<path d="M140.63 118.349L204.406 81.2917" stroke="#F2F2F2" stroke-width="6" stroke-linecap="round"/>
<path d="M208.599 159.396L272.891 122.328" stroke="#F2F2F2" stroke-width="6" stroke-linecap="round"/>
<path d="M275 122.76V197.964" stroke="#F2F2F2" stroke-width="6" stroke-linecap="round"/>
<path d="M274.995 282.786V355.599" stroke="#F2F2F2" stroke-width="6" stroke-linecap="round"/>
<path d="M209.594 393.682L273.885 356.615" stroke="#F2F2F2" stroke-width="6" stroke-linecap="round"/>
<path d="M276.589 199.448L341.896 161.339" stroke="#F2F2F2" stroke-width="6" stroke-linecap="round"/>
<path d="M277.599 277.854L341.885 240.786" stroke="#F2F2F2" stroke-width="6" stroke-linecap="round"/>
<path d="M342.995 242.958V315.766" stroke="#F2F2F2" stroke-width="6" stroke-linecap="round"/>
<path d="M343.135 83.4531L343.125 157.901" stroke="#F2F2F2" stroke-width="6" stroke-linecap="round"/>
<path d="M208.625 81.276L272.375 117.604" stroke="#F2F2F2" stroke-width="6" stroke-linecap="round"/>
<path d="M140.651 122.318L203.406 157.693" stroke="#F2F2F2" stroke-width="6" stroke-linecap="round"/>
<path d="M277.646 44.375L340.401 79.7552" stroke="#F2F2F2" stroke-width="6" stroke-linecap="round"/>
<path d="M344.552 3.47917L407.411 40.1198" stroke="#F2F2F2" stroke-width="6" stroke-linecap="round"/>
<path d="M277.594 122.979L340.349 158.354" stroke="#F2F2F2" stroke-width="6" stroke-linecap="round"/>
<path d="M275.776 42.0469L341.896 3.47392" stroke="#F2F2F2" stroke-width="6" stroke-linecap="round"/>
<path d="M344.563 79.5261L408.849 42.4584" stroke="#F2F2F2" stroke-width="6" stroke-linecap="round"/>
<path d="M344.599 315.526L408.885 278.458" stroke="#F2F2F2" stroke-width="6" stroke-linecap="round"/>
<path d="M274.958 45.0365V117.844" stroke="#F2F2F2" stroke-width="6" stroke-linecap="round"/>
</svg>
